<svg width="100" height="60" viewBox="0 0 100 60" fill="none" xmlns="http://www.w3.org/2000/svg">
<path d="M69 25C69 35.4934 60.4934 44 50 44C39.5066 44 31 35.4934 31 25C31 14.5066 39.5066 6 50 6C60.4934 6 69 14.5066 69 25Z" fill="#B0907A"/>
<path d="M95.6784 22.2913C95.8856 22.2732 96.0534 22.3548 96.1817 22.5364C96.326 22.7165 96.4127 22.9739 96.442 23.3086C96.4922 23.8824 96.4 24.3884 96.1652 24.8265C95.7789 25.5509 95.2359 26.1365 94.5362 26.5832C93.8524 27.0285 93.0084 27.295 92.0042 27.3829C90.4741 27.5168 89.2469 27.1664 88.3226 26.3318C87.3969 25.4812 86.8658 24.2749 86.7291 22.7129C86.6329 21.6131 86.7748 20.5727 87.1547 19.5919C87.5333 18.5951 88.1046 17.7822 88.8687 17.1532C89.6487 16.5229 90.5568 16.1623 91.5928 16.0717C92.5173 15.9908 93.2829 16.2049 93.8895 16.714C94.4948 17.2071 94.8386 17.9239 94.9209 18.8643C95.0171 19.9641 94.7016 20.9473 93.9743 21.814C93.2617 22.6633 91.9772 23.4021 90.1208 24.0303C90.5675 24.73 91.2451 25.0401 92.1537 24.9606C92.8072 24.9035 93.3279 24.7053 93.7158 24.3662C94.1197 24.0257 94.5692 23.4725 95.0643 22.7064C95.2346 22.4506 95.4393 22.3122 95.6784 22.2913ZM91.3914 18.4503C90.8016 18.5019 90.3295 18.8885 89.9751 19.6102C89.6365 20.3304 89.5098 21.1767 89.5949 22.149L89.5991 22.1968C90.5199 21.8914 91.2318 21.4918 91.7347 20.9981C92.2376 20.5044 92.4632 19.9626 92.4117 19.3729C92.3852 19.0701 92.2766 18.8386 92.0859 18.6786C91.9098 18.5013 91.6783 18.4252 91.3914 18.4503Z" fill="#403F3D"/>
<path d="M83.2976 28.1446C81.7356 28.2813 80.4779 27.9497 79.5245 27.1497C78.5857 26.3324 78.0529 25.1985 77.926 23.7481C77.813 22.457 77.969 21.303 78.394 20.2861C78.819 19.2692 79.4149 18.4622 80.1818 17.8651C80.9487 17.268 81.7784 16.9304 82.671 16.8523C83.5477 16.7756 84.2481 16.9793 84.7723 17.4635C85.311 17.9303 85.6159 18.5702 85.6871 19.383C85.7456 20.0525 85.6437 20.6316 85.3813 21.1203C85.1348 21.6076 84.7725 21.8722 84.2944 21.9141C83.9915 21.9406 83.7382 21.8904 83.5344 21.7637C83.3465 21.6356 83.2414 21.444 83.2191 21.189C83.2093 21.0774 83.2141 20.9485 83.2334 20.8023C83.2527 20.6561 83.2676 20.5504 83.278 20.4852C83.3367 20.2392 83.357 20.0125 83.3389 19.8053C83.3208 19.5981 83.2511 19.4436 83.1297 19.3418C83.0243 19.2386 82.876 19.1953 82.6847 19.2121C82.3181 19.2441 81.9901 19.4415 81.7006 19.8041C81.4097 20.1508 81.193 20.6114 81.0506 21.186C80.9081 21.7606 80.8661 22.3826 80.9247 23.0521C81.0865 24.901 81.9723 25.7551 83.5821 25.6142C84.2356 25.557 84.9181 25.2805 85.6296 24.7846C86.3556 24.2714 87.0469 23.5444 87.7034 22.6036C87.8752 22.3637 88.0806 22.2333 88.3197 22.2124C88.5269 22.1942 88.6946 22.2759 88.8229 22.4574C88.9672 22.6375 89.054 22.895 89.0832 23.2297C89.1362 23.8354 89.028 24.3427 88.7587 24.7518C88.0904 25.7418 87.2526 26.5378 86.2452 27.1399C85.2524 27.7247 84.2699 28.0596 83.2976 28.1446Z" fill="#403F3D"/>
<path d="M69.549 29.3476C68.9433 29.4006 68.485 29.1195 68.1742 28.5042C67.8794 27.8876 67.6706 26.8779 67.5479 25.4753C67.3666 23.4032 67.4892 21.4089 67.9158 19.4924C68.0188 19.0177 68.2207 18.6627 68.5213 18.4276C68.8365 18.1752 69.289 18.0232 69.8787 17.9716C70.1975 17.9437 70.4242 17.964 70.5586 18.0326C70.6931 18.1011 70.7701 18.2469 70.7897 18.4701C70.812 18.7251 70.7426 19.3094 70.5816 20.2229C70.478 20.8744 70.3993 21.4434 70.3455 21.93C70.2917 22.4165 70.2636 23.0132 70.2612 23.7201C70.6673 22.3033 71.1594 21.136 71.7376 20.2181C72.3158 19.3002 72.8997 18.6308 73.4892 18.2098C74.0947 17.7874 74.6605 17.5532 75.1865 17.5072C76.2225 17.4166 76.7858 17.8893 76.8765 18.9253C76.8946 19.1325 76.8668 19.6409 76.7931 20.4504C76.7214 21.0991 76.6925 21.5032 76.7064 21.6626C76.7552 22.2204 76.9789 22.4819 77.3773 22.4471C77.8236 22.408 78.3668 22.0072 79.0067 21.2445C79.1958 21.0191 79.4019 20.8967 79.6251 20.8772C79.8323 20.8591 80 20.9408 80.1283 21.1223C80.2712 21.2864 80.3559 21.5199 80.3824 21.8228C80.434 22.4125 80.315 22.8887 80.0255 23.2513C79.6197 23.7526 79.1285 24.1971 78.5521 24.5848C77.9903 24.9552 77.3746 25.1697 76.7052 25.2282C75.8604 25.3021 75.196 25.1434 74.7121 24.7521C74.2441 24.3594 73.978 23.7965 73.9139 23.0633C73.8929 22.8242 73.8959 22.583 73.9228 22.3397C73.9268 22.0182 73.9239 21.8016 73.9142 21.69C73.8919 21.435 73.793 21.3151 73.6177 21.3305C73.3786 21.3514 73.0836 21.6503 72.7325 22.2271C72.396 22.7865 72.0748 23.5213 71.7689 24.4314C71.4631 25.3415 71.2332 26.2932 71.0791 27.2864C70.9694 28.0509 70.8068 28.5791 70.5914 28.8709C70.3906 29.1455 70.0431 29.3044 69.549 29.3476Z" fill="#403F3D"/>
<path d="M59.2462 30.2488C58.5289 30.3116 57.9106 30.0364 57.3912 29.4233C56.8863 28.7929 56.5906 27.9836 56.5042 26.9954C56.3996 25.8 56.3838 24.7012 56.4567 23.699C56.5282 22.6809 56.6985 21.5979 56.9675 20.4501C57.085 19.958 57.2782 19.5958 57.547 19.3635C57.8157 19.1312 58.2609 18.9878 58.8826 18.9334C59.2332 18.9028 59.4772 18.9376 59.6145 19.038C59.7677 19.1371 59.8541 19.2981 59.8736 19.5213C59.8847 19.6488 59.8347 20.0868 59.7235 20.8354C59.6157 21.4391 59.5349 21.9842 59.4811 22.4707C59.3088 24.1722 59.247 25.3019 59.2958 25.8598C59.3251 26.1945 59.3859 26.4301 59.4781 26.5666C59.569 26.6871 59.7021 26.7397 59.8774 26.7244C60.1165 26.7035 60.3904 26.4386 60.6993 25.9297C61.024 25.4195 61.3431 24.6608 61.6565 23.6536C61.9859 22.6451 62.2798 21.4148 62.5382 19.9627C62.6239 19.4734 62.7852 19.114 63.0221 18.8845C63.2749 18.6535 63.6643 18.5151 64.1903 18.4691C64.5569 18.437 64.8161 18.4625 64.9679 18.5456C65.1184 18.6127 65.204 18.7658 65.2249 19.0049C65.2598 19.4034 65.1561 20.5127 64.9138 22.3327C64.646 24.412 64.533 25.6907 64.5748 26.1688C64.6013 26.4717 64.686 26.7052 64.8289 26.8694C64.9703 27.0176 65.1447 27.0827 65.3519 27.0645C65.6706 27.0366 66.0285 26.8126 66.4254 26.3924C66.8368 25.9549 67.3708 25.2657 68.0273 24.3249C68.199 24.0851 68.4044 23.9547 68.6435 23.9337C68.8507 23.9156 69.0185 23.9973 69.1468 24.1788C69.291 24.3589 69.3778 24.6163 69.4071 24.9511C69.4629 25.5886 69.3547 26.096 69.0825 26.4731C68.471 27.3779 67.7905 28.1361 67.041 28.7477C66.3074 29.358 65.4385 29.707 64.4343 29.7949C63.6693 29.8618 63.0776 29.6165 62.6594 29.0588C62.2572 28.4997 62.0093 27.6862 61.9159 26.6183C61.7398 27.7259 61.4065 28.5982 60.9162 29.2354C60.4245 29.8566 59.8678 30.1944 59.2462 30.2488Z" fill="#403F3D"/>
<path d="M57.5606 22.8796C57.7678 22.8614 57.9362 22.9511 58.0659 23.1485C58.1956 23.346 58.2744 23.6041 58.3023 23.9229C58.3692 24.688 58.1779 25.1625 57.7282 25.3463C56.8011 25.7647 55.7659 26.048 54.6225 26.1963C54.4367 27.5616 53.9332 28.6898 53.1117 29.5808C52.2888 30.4559 51.3115 30.9429 50.1799 31.0419C49.2235 31.1256 48.3824 30.9663 47.6566 30.564C46.9467 30.1603 46.383 29.5913 45.9654 28.8569C45.5478 28.1225 45.3 27.309 45.2219 26.4164C45.1159 25.205 45.2529 24.1089 45.6328 23.1281C46.0114 22.1313 46.5841 21.3343 47.351 20.7372C48.1165 20.1242 48.9933 19.7744 49.9816 19.688C51.1929 19.582 52.2022 19.9193 53.0093 20.6999C53.8309 21.4632 54.3592 22.453 54.5941 23.6691C55.339 23.5558 56.2177 23.3183 57.23 22.9567C57.3547 22.9136 57.4649 22.8879 57.5606 22.8796ZM50.1494 28.4908C50.6595 28.4462 51.0797 28.2007 51.41 27.7542C51.7563 27.3063 51.959 26.6863 52.0182 25.8941C51.4948 25.6026 51.0739 25.1977 50.7555 24.6795C50.4531 24.1599 50.2754 23.5972 50.2224 22.9916C50.2001 22.7365 50.2017 22.4794 50.2272 22.2202L50.1076 22.2307C49.4701 22.2864 48.9633 22.644 48.5873 23.3032C48.2259 23.9452 48.094 24.824 48.1916 25.9398C48.2683 26.8164 48.4942 27.4712 48.8694 27.9042C49.2605 28.3357 49.6872 28.5313 50.1494 28.4908Z" fill="#403F3D"/>
<path d="M40.3103 32.4354C39.4815 32.508 38.8272 32.3725 38.3474 32.029C37.8836 31.6841 37.6307 31.2726 37.5889 30.7944C37.5527 30.38 37.6727 30.0081 37.9491 29.6787C38.2254 29.3494 38.6584 29.1589 39.2482 29.1073C39.4554 29.0892 39.6966 29.0922 39.9717 29.1163C40.2614 29.1231 40.4787 29.1282 40.6235 29.1316C40.5713 28.7185 40.4415 28.3364 40.2341 27.9851C40.0427 27.6325 39.8048 27.3 39.5205 26.9876C39.2348 26.6592 38.9692 26.3773 38.7237 26.1418C38.3119 27.1254 37.8861 27.9497 37.4464 28.6145C37.0226 29.278 36.5482 29.9137 36.0232 30.5218C35.7614 30.8338 35.4711 31.0038 35.1523 31.0316C34.8973 31.054 34.6824 30.9844 34.5077 30.823C34.3316 30.6457 34.2316 30.4216 34.2079 30.1506C34.1801 29.8318 34.2658 29.5272 34.4653 29.2367L34.7426 28.827C35.5244 27.6664 36.1078 26.7159 36.4928 25.9756C36.7233 25.4896 36.9884 24.8481 37.288 24.0509C37.5863 23.2379 37.8745 22.4016 38.1527 21.542C38.3942 20.8142 38.9931 20.4085 39.9494 20.3248C40.3957 20.2858 40.71 20.2984 40.8923 20.3628C41.0746 20.4271 41.1734 20.547 41.1888 20.7223C41.1971 20.8179 41.1785 20.9722 41.1329 21.1849C41.0873 21.3977 41.0177 21.6126 40.9243 21.8296C40.6876 22.4285 40.5867 22.9272 40.6215 23.3257C40.6424 23.5647 40.7451 23.8208 40.9296 24.0937C41.1301 24.3653 41.4244 24.7009 41.8127 25.1006C42.3814 25.7254 42.8141 26.2657 43.111 26.7216C43.4224 27.1601 43.6025 27.6583 43.6513 28.2162C43.6652 28.3756 43.6688 28.6001 43.662 28.8898C44.4166 28.5187 45.2626 27.6335 46.2003 26.2345C46.372 25.9946 46.5774 25.8642 46.8165 25.8433C47.0237 25.8252 47.1915 25.9069 47.3198 26.0884C47.464 26.2685 47.5508 26.5259 47.5801 26.8606C47.6331 27.4663 47.5249 27.9737 47.2555 28.3827C46.545 29.4407 45.8392 30.185 45.1381 30.6158C44.4515 31.0292 43.5756 31.2985 42.5105 31.4238C41.9204 32.0215 41.187 32.3587 40.3103 32.4354Z" fill="#403F3D"/>
<path d="M36.6161 26.7357C36.8233 26.7175 36.9911 26.7992 37.1194 26.9807C37.2636 27.1608 37.3504 27.4183 37.3797 27.753C37.4355 28.3905 37.3273 28.8979 37.0551 29.2751C36.5281 30.0439 35.7492 30.7786 34.7183 31.4791C33.7034 32.1782 32.5823 32.5815 31.355 32.6888C29.6814 32.8353 28.3426 32.4947 27.3386 31.667C26.3347 30.8394 25.7637 29.6365 25.6256 28.0586C25.5294 26.9588 25.6713 25.9185 26.0512 24.9376C26.4298 23.9408 27.0011 23.1279 27.7652 22.4989C28.5452 21.8686 29.4533 21.508 30.4893 21.4174C31.4138 21.3365 32.1793 21.5506 32.786 22.0597C33.3913 22.5528 33.7351 23.2696 33.8173 24.21C33.9136 25.3098 33.5981 26.293 32.8708 27.1597C32.1581 28.009 30.8816 28.7471 29.0412 29.3739C29.5039 30.0722 30.293 30.3726 31.4088 30.275C32.126 30.2122 32.9173 29.894 33.7826 29.3204C34.6625 28.7295 35.4016 27.9983 35.9999 27.1269C36.1716 26.887 36.377 26.7566 36.6161 26.7357ZM30.2878 23.796C29.6981 23.8476 29.226 24.2342 28.8715 24.9559C28.533 25.6761 28.4063 26.5224 28.4914 27.4947L28.4955 27.5425C29.4164 27.2371 30.1283 26.8375 30.6312 26.3438C31.1341 25.8501 31.3597 25.3083 31.3081 24.7186C31.2816 24.4158 31.1731 24.1843 30.9824 24.0243C30.8063 23.847 30.5747 23.7709 30.2878 23.796Z" fill="#403F3D"/>
<path d="M27.6906 27.5167C27.8978 27.4986 28.0656 27.5803 28.1939 27.7618C28.3382 27.9419 28.4249 28.1993 28.4542 28.5341C28.5086 29.1557 28.4004 29.6631 28.1296 30.0561C27.4454 31.0476 26.7351 31.8324 25.9987 32.4108C25.261 32.9733 24.3581 33.3012 23.2902 33.3946C22.2541 33.4853 21.3451 33.2837 20.5631 32.79C19.797 32.2949 19.028 31.3985 18.256 30.1009C17.6351 29.063 17.151 28.3023 16.8035 27.8188C16.4547 27.3193 16.119 26.9712 15.7967 26.7745C15.4903 26.5765 15.1198 26.4724 14.6852 26.4622C14.6508 26.8025 14.5595 27.8705 14.4114 29.6663C14.3537 30.4744 14.3165 30.9675 14.3 31.1456C14.2256 32.1319 13.9724 32.9089 13.5402 33.4767C13.1067 34.0286 12.4038 34.3471 11.4315 34.4321C10.3636 34.5256 9.38799 34.2977 8.50477 33.7486C7.63609 33.1822 6.9298 32.3606 6.38589 31.2839C5.84059 30.1913 5.50518 28.9277 5.37968 27.4932C5.1454 24.8154 5.40544 22.4638 6.15978 20.4383C6.93006 18.4115 8.10738 16.8148 9.69174 15.6483C11.2906 14.4644 13.1899 13.7763 15.3895 13.5838C16.9196 13.45 18.223 13.5688 19.2994 13.9404C20.3759 14.312 21.1968 14.8826 21.762 15.6523C22.3432 16.4206 22.6784 17.3148 22.7676 18.3349C22.8457 19.2275 22.7073 20.1229 22.3522 21.0213C22.0117 21.9023 21.4476 22.7066 20.66 23.434C19.8724 24.1614 18.8869 24.7375 17.7034 25.1622C18.4866 25.3025 19.1057 25.5856 19.5605 26.0116C20.0154 26.4376 20.4891 27.0787 20.9816 27.9351C21.5115 28.8524 22.0112 29.5153 22.4806 29.924C22.966 30.3312 23.4955 30.5098 24.0693 30.4596C24.5794 30.4149 25.0509 30.205 25.4838 29.8299C25.9154 29.4388 26.4456 28.7981 27.0744 27.9079C27.2461 27.6681 27.4515 27.5377 27.6906 27.5167ZM11.3837 26.727C10.8418 26.7744 10.4561 26.6797 10.2266 26.4428C10.013 26.2045 9.89225 25.9259 9.86436 25.6071C9.8309 25.2246 9.92394 24.9113 10.1435 24.6672C10.379 24.4218 10.6562 24.2851 10.9749 24.2572L11.5727 24.2049C11.691 22.6206 11.8123 21.2528 11.9364 20.1016C12.053 19.0474 12.6771 18.4708 13.8088 18.3718C14.7173 18.2923 15.2071 18.659 15.2782 19.4719C15.2936 19.6473 15.2975 19.7835 15.2899 19.8805L14.9199 23.9121C15.7764 23.789 16.5393 23.5134 17.2085 23.0855C17.8937 22.6561 18.4149 22.0966 18.7722 21.4068C19.1454 20.7156 19.2957 19.9556 19.2232 19.1268C19.1353 18.1226 18.7236 17.3636 17.988 16.8498C17.2524 16.3359 16.2232 16.1369 14.9002 16.2526C13.3382 16.3893 12.0016 16.8997 10.8904 17.7839C9.79381 18.6508 8.98568 19.8779 8.46605 21.4653C7.94503 23.0366 7.78003 24.9142 7.97108 27.0978C8.06033 28.1179 8.24063 28.9855 8.51198 29.7006C8.78334 30.4157 9.08648 30.9432 9.42139 31.2834C9.75631 31.6235 10.0592 31.7817 10.3302 31.7579C10.5374 31.7398 10.6957 31.6216 10.8051 31.4032C10.9304 31.1834 11.0127 30.839 11.052 30.3698L11.3837 26.727Z" fill="#403F3D"/>
<path d="M78.4023 54.0001V48.1819H82.1864V49.0654H79.4563V50.645H81.9904V51.5285H79.4563V53.1165H82.2092V54.0001H78.4023Z" fill="#403F3D"/>
<path d="M75.9698 49.7813C75.9433 49.5332 75.8316 49.34 75.6346 49.2017C75.4395 49.0635 75.1857 48.9943 74.8732 48.9943C74.6535 48.9943 74.4651 49.0275 74.3079 49.0938C74.1507 49.1601 74.0304 49.25 73.9471 49.3637C73.8638 49.4773 73.8211 49.607 73.8192 49.7529C73.8192 49.8741 73.8467 49.9792 73.9016 50.0682C73.9585 50.1572 74.0352 50.233 74.1317 50.2955C74.2283 50.3561 74.3353 50.4072 74.4528 50.4489C74.5702 50.4906 74.6886 50.5256 74.8079 50.554L75.3533 50.6904C75.573 50.7415 75.7842 50.8106 75.9869 50.8977C76.1914 50.9849 76.3742 51.0947 76.5352 51.2273C76.698 51.3599 76.8268 51.5199 76.9215 51.7074C77.0162 51.8949 77.0636 52.1146 77.0636 52.3665C77.0636 52.7074 76.9764 53.0076 76.8022 53.2671C76.628 53.5246 76.3761 53.7263 76.0465 53.8722C75.7189 54.0161 75.3221 54.0881 74.8562 54.0881C74.4035 54.0881 74.0105 54.018 73.6772 53.8779C73.3458 53.7377 73.0863 53.5332 72.8988 53.2642C72.7132 52.9953 72.6128 52.6676 72.5977 52.2813H73.6346C73.6497 52.4839 73.7122 52.6525 73.8221 52.787C73.9319 52.9214 74.0749 53.0218 74.2511 53.0881C74.4291 53.1544 74.628 53.1875 74.8477 53.1875C75.0768 53.1875 75.2776 53.1534 75.4499 53.0852C75.6242 53.0152 75.7605 52.9186 75.859 52.7955C75.9575 52.6705 76.0077 52.5246 76.0096 52.358C76.0077 52.2065 75.9632 52.0815 75.8761 51.983C75.7889 51.8826 75.6668 51.7993 75.5096 51.733C75.3543 51.6648 75.1725 51.6042 74.9641 51.5512L74.3022 51.3807C73.823 51.2576 73.4442 51.071 73.1658 50.821C72.8893 50.5692 72.7511 50.2349 72.7511 49.8182C72.7511 49.4754 72.8439 49.1752 73.0295 48.9176C73.217 48.6601 73.4717 48.4602 73.7937 48.3182C74.1156 48.1743 74.4802 48.1023 74.8874 48.1023C75.3003 48.1023 75.6621 48.1743 75.9727 48.3182C76.2852 48.4602 76.5304 48.6582 76.7085 48.912C76.8865 49.1638 76.9783 49.4536 76.984 49.7813H75.9698Z" fill="#403F3D"/>
<path d="M70.2086 48.1819H71.2626V51.983C71.2626 52.3997 71.1641 52.7662 70.9672 53.0825C70.7721 53.3987 70.4975 53.6459 70.1433 53.8239C69.7891 54.0001 69.3753 54.0881 68.9018 54.0881C68.4264 54.0881 68.0117 54.0001 67.6575 53.8239C67.3033 53.6459 67.0287 53.3987 66.8336 53.0825C66.6386 52.7662 66.541 52.3997 66.541 51.983V48.1819H67.595V51.895C67.595 52.1374 67.648 52.3533 67.7541 52.5427C67.862 52.7321 68.0136 52.8807 68.2086 52.9887C68.4037 53.0948 68.6348 53.1478 68.9018 53.1478C69.1689 53.1478 69.3999 53.0948 69.595 52.9887C69.792 52.8807 69.9435 52.7321 70.0495 52.5427C70.1556 52.3533 70.2086 52.1374 70.2086 51.895V48.1819Z" fill="#403F3D"/>
<path d="M65.1435 51.0909C65.1435 51.7178 65.026 52.2548 64.7912 52.7017C64.5582 53.1468 64.2401 53.4877 63.8366 53.7245C63.4351 53.9612 62.9796 54.0796 62.4702 54.0796C61.9607 54.0796 61.5043 53.9612 61.1009 53.7245C60.6993 53.4858 60.3812 53.144 60.1463 52.6989C59.9134 52.2519 59.7969 51.7159 59.7969 51.0909C59.7969 50.464 59.9134 49.9281 60.1463 49.483C60.3812 49.036 60.6993 48.6942 61.1009 48.4574C61.5043 48.2207 61.9607 48.1023 62.4702 48.1023C62.9796 48.1023 63.4351 48.2207 63.8366 48.4574C64.2401 48.6942 64.5582 49.036 64.7912 49.483C65.026 49.9281 65.1435 50.464 65.1435 51.0909ZM64.0838 51.0909C64.0838 50.6496 64.0147 50.2775 63.8764 49.9745C63.7401 49.6695 63.5507 49.4394 63.3082 49.2841C63.0658 49.1269 62.7865 49.0483 62.4702 49.0483C62.1539 49.0483 61.8745 49.1269 61.6321 49.2841C61.3897 49.4394 61.1993 49.6695 61.0611 49.9745C60.9247 50.2775 60.8565 50.6496 60.8565 51.0909C60.8565 51.5322 60.9247 51.9053 61.0611 52.2102C61.1993 52.5133 61.3897 52.7434 61.6321 52.9006C61.8745 53.0559 62.1539 53.1335 62.4702 53.1335C62.7865 53.1335 63.0658 53.0559 63.3082 52.9006C63.5507 52.7434 63.7401 52.5133 63.8764 52.2102C64.0147 51.9053 64.0838 51.5322 64.0838 51.0909Z" fill="#403F3D"/>
<path d="M53.5918 54.0001V48.1819H54.6458V50.645H57.3418V48.1819H58.3986V54.0001H57.3418V51.5285H54.6458V54.0001H53.5918Z" fill="#403F3D"/>
<path d="M45.9492 54.0001V48.1819H49.7333V49.0654H47.0032V50.645H49.5373V51.5285H47.0032V53.1165H49.756V54.0001H45.9492Z" fill="#403F3D"/>
<path d="M40.6895 54.0001V48.1819H44.4735V49.0654H41.7434V50.645H44.2775V51.5285H41.7434V53.1165H44.4963V54.0001H40.6895Z" fill="#403F3D"/>
<path d="M35.6016 54.0001V48.1819H39.3288V49.0654H36.6555V50.645H39.0732V51.5285H36.6555V54.0001H35.6016Z" fill="#403F3D"/>
<path d="M30.5137 54.0001V48.1819H34.2409V49.0654H31.5676V50.645H33.9853V51.5285H31.5676V54.0001H30.5137Z" fill="#403F3D"/>
<path d="M29.1181 51.0909C29.1181 51.7178 29.0007 52.2548 28.7658 52.7017C28.5328 53.1468 28.2147 53.4877 27.8113 53.7245C27.4097 53.9612 26.9542 54.0796 26.4448 54.0796C25.9353 54.0796 25.4789 53.9612 25.0755 53.7245C24.6739 53.4858 24.3558 53.144 24.1209 52.6989C23.888 52.2519 23.7715 51.7159 23.7715 51.0909C23.7715 50.464 23.888 49.9281 24.1209 49.483C24.3558 49.036 24.6739 48.6942 25.0755 48.4574C25.4789 48.2207 25.9353 48.1023 26.4448 48.1023C26.9542 48.1023 27.4097 48.2207 27.8113 48.4574C28.2147 48.6942 28.5328 49.036 28.7658 49.483C29.0007 49.9281 29.1181 50.464 29.1181 51.0909ZM28.0584 51.0909C28.0584 50.6496 27.9893 50.2775 27.851 49.9745C27.7147 49.6695 27.5253 49.4394 27.2828 49.2841C27.0404 49.1269 26.7611 49.0483 26.4448 49.0483C26.1285 49.0483 25.8491 49.1269 25.6067 49.2841C25.3643 49.4394 25.1739 49.6695 25.0357 49.9745C24.8993 50.2775 24.8311 50.6496 24.8311 51.0909C24.8311 51.5322 24.8993 51.9053 25.0357 52.2102C25.1739 52.5133 25.3643 52.7434 25.6067 52.9006C25.8491 53.0559 26.1285 53.1335 26.4448 53.1335C26.7611 53.1335 27.0404 53.0559 27.2828 52.9006C27.5253 52.7434 27.7147 52.5133 27.851 52.2102C27.9893 51.9053 28.0584 51.5322 28.0584 51.0909Z" fill="#403F3D"/>
<path d="M22.5536 50.1449H21.4911C21.4608 49.9707 21.4049 49.8163 21.3235 49.6818C21.2421 49.5455 21.1407 49.4299 21.0195 49.3352C20.8983 49.2406 20.7601 49.1695 20.6048 49.1222C20.4513 49.0729 20.2856 49.0483 20.1076 49.0483C19.7913 49.0483 19.511 49.1279 19.2667 49.287C19.0224 49.4442 18.8311 49.6752 18.6928 49.9801C18.5546 50.2832 18.4854 50.6534 18.4854 51.0909C18.4854 51.536 18.5546 51.911 18.6928 52.2159C18.833 52.519 19.0243 52.7481 19.2667 52.9034C19.511 53.0568 19.7904 53.1335 20.1048 53.1335C20.279 53.1335 20.4419 53.1108 20.5934 53.0654C20.7468 53.018 20.8841 52.9489 21.0053 52.858C21.1284 52.7671 21.2317 52.6553 21.315 52.5227C21.4002 52.3902 21.4589 52.2387 21.4911 52.0682L22.5536 52.0739C22.5138 52.3504 22.4277 52.6099 22.2951 52.8523C22.1644 53.0947 21.993 53.3087 21.7809 53.4943C21.5688 53.6781 21.3207 53.822 21.0366 53.9262C20.7525 54.0284 20.4371 54.0796 20.0906 54.0796C19.5792 54.0796 19.1228 53.9612 18.7212 53.7245C18.3197 53.4877 18.0034 53.1459 17.7724 52.6989C17.5413 52.2519 17.4258 51.7159 17.4258 51.0909C17.4258 50.464 17.5423 49.9281 17.7752 49.483C18.0082 49.036 18.3254 48.6942 18.7269 48.4574C19.1284 48.2207 19.583 48.1023 20.0906 48.1023C20.4144 48.1023 20.7156 48.1477 20.994 48.2387C21.2724 48.3296 21.5205 48.4631 21.7383 48.6392C21.9561 48.8135 22.1351 49.0275 22.2752 49.2813C22.4173 49.5332 22.5101 49.821 22.5536 50.1449Z" fill="#403F3D"/>
</svg>
